Hanif_Medium_7_5_grf.mot
version=1
nRows=37
nColumns=19
inDegrees=yes
endheader
time	right_ground_force_vx	right_ground_force_vy	right_ground_force_vz	right_ground_force_px	right_ground_force_py	right_ground_force_pz	right_ground_torque_x	right_ground_torque_y	right_ground_torque_z	left_ground_force_vx	left_ground_force_vy	left_ground_force_vz	left_ground_force_px	left_ground_force_py	left_ground_force_pz	left_ground_torque_x	left_ground_torque_y	left_ground_torque_z
4.475000	-6.776680	403.810000	42.819400	0.212975	0.000000	-1.429860	-30.832900	4.019420	5.779090	-7.774900	366.478000	-46.195300	0.237493	0.000000	-0.985860	30.520000	-4.866520	14.653200
4.480000	-7.847750	402.011000	43.593600	0.213758	0.000000	-1.429670	-30.786800	3.922140	6.086120	-7.043870	365.364000	-46.327900	0.237973	0.000000	-0.986561	30.668200	-4.812380	14.781800
4.485000	-7.921880	400.453000	43.664700	0.214704	0.000000	-1.429890	-30.576700	3.674120	6.424790	-7.156140	363.162000	-46.141400	0.237974	0.000000	-0.986341	30.408200	-4.863130	14.706800
4.490000	-8.534400	396.274000	43.528300	0.214807	0.000000	-1.428640	-30.760700	3.586930	6.405050	-6.506800	361.592000	-47.127600	0.238864	0.000000	-0.987344	30.627600	-4.808640	14.990000
4.495000	-9.636300	396.410000	43.609100	0.215283	0.000000	-1.429080	-30.611400	3.445940	6.592420	-6.205430	361.152000	-46.777000	0.238747	0.000000	-0.987077	30.486400	-4.764300	14.912900
4.500000	-9.671880	393.159000	44.123300	0.216173	0.000000	-1.428790	-30.471000	3.282210	6.890980	-6.284840	359.538000	-47.791900	0.238593	0.000000	-0.986764	30.239300	-4.664830	14.811000
4.505000	-10.133500	392.361000	44.273400	0.216826	0.000000	-1.428920	-30.363900	3.186900	7.133660	-6.316520	357.355000	-47.826200	0.239488	0.000000	-0.987384	30.279800	-4.639840	15.056400
4.510000	-9.953120	389.766000	44.535700	0.216841	0.000000	-1.428650	-30.263800	2.976840	7.077890	-6.456290	353.474000	-48.481000	0.239002	0.000000	-0.987093	29.854700	-4.679240	14.761900
4.515000	-10.100000	387.910000	44.401300	0.217473	0.000000	-1.428720	-30.094400	2.930360	7.291460	-6.625990	350.556000	-47.856100	0.240038	0.000000	-0.987638	29.804200	-4.602570	15.002200
4.520000	-9.546070	383.470000	44.545400	0.217760	0.000000	-1.429060	-29.612600	2.865680	7.320380	-6.499290	347.981000	-47.929000	0.240079	0.000000	-0.987133	29.405600	-4.443260	14.898500
4.525000	-9.344180	380.668000	44.648800	0.218154	0.000000	-1.428500	-29.607000	2.769730	7.415560	-7.098070	346.355000	-46.912000	0.240248	0.000000	-0.987450	29.392300	-4.472920	14.882900
4.530000	-9.191880	376.766000	45.022700	0.218644	0.000000	-1.428450	-29.319500	2.672840	7.529470	-7.396540	341.126000	-46.606000	0.240550	0.000000	-0.988401	29.282500	-4.402520	14.778700
4.535000	-9.518380	374.431000	44.846500	0.218210	0.000000	-1.428290	-29.200700	2.563930	7.311710	-7.935210	339.592000	-45.540700	0.241306	0.000000	-0.987550	28.874500	-4.377630	14.956600
4.540000	-9.682410	372.221000	44.263500	0.219001	0.000000	-1.428070	-29.114600	2.543530	7.564950	-7.555390	336.216000	-44.983400	0.241838	0.000000	-0.987807	28.666900	-4.302450	14.979600
4.545000	-9.554920	366.460000	44.328800	0.219767	0.000000	-1.426750	-29.145900	2.320350	7.722130	-7.650610	331.475000	-44.263900	0.242197	0.000000	-0.988267	28.419300	-4.219580	14.887200
4.550000	-9.447030	365.127000	44.689000	0.220241	0.000000	-1.426930	-28.972700	2.340680	7.879070	-7.965400	328.086000	-43.632700	0.241364	0.000000	-0.988025	28.057600	-4.192620	14.458600
4.555000	-9.416310	361.523000	44.259600	0.220158	0.000000	-1.427020	-28.655400	2.268380	7.765700	-7.883780	323.976000	-43.134300	0.241478	0.000000	-0.988048	27.713300	-4.105870	14.312100
4.560000	-9.753830	360.241000	43.791800	0.220987	0.000000	-1.427090	-28.529100	2.114440	8.022790	-7.365700	320.471000	-42.932800	0.241256	0.000000	-0.987696	27.292200	-4.112330	14.093100
4.565000	-9.829940	358.188000	44.037500	0.220891	0.000000	-1.426470	-28.592500	2.170730	7.958980	-6.871790	316.057000	-42.976900	0.240886	0.000000	-0.988203	27.069900	-4.142960	13.804300
4.570000	-10.334000	355.346000	43.798200	0.222010	0.000000	-1.426230	-28.456700	1.987420	8.286430	-7.121780	310.032000	-42.241700	0.241051	0.000000	-0.987641	26.390900	-4.173600	13.614300
4.575000	-9.413120	350.284000	44.276300	0.223228	0.000000	-1.425510	-28.294300	1.887290	8.600600	-6.505500	303.972000	-41.602300	0.241471	0.000000	-0.988807	26.220700	-4.154730	13.487100
4.580000	-9.251770	349.676000	44.286800	0.223396	0.000000	-1.426770	-27.799200	1.837410	8.637830	-6.086950	299.094000	-40.981400	0.241323	0.000000	-0.989063	25.872200	-4.240050	13.244200
4.585000	-8.666700	345.466000	44.779900	0.223596	0.000000	-1.425760	-27.811100	1.895400	8.624450	-6.384320	292.811000	-40.473700	0.242131	0.000000	-0.989575	25.487800	-4.056550	13.209100
4.590000	-8.227250	340.622000	45.373400	0.223442	0.000000	-1.425420	-27.532900	1.754950	8.448760	-7.589580	288.012000	-40.218800	0.243106	0.000000	-0.989099	24.966300	-4.018640	13.309700
4.595000	-7.535570	336.319000	45.483000	0.223311	0.000000	-1.424810	-27.382000	1.700680	8.296210	-8.302160	282.519000	-39.084900	0.243068	0.000000	-0.990114	24.796500	-3.891390	13.038900
4.600000	-8.043340	332.664000	45.678400	0.223740	0.000000	-1.425650	-26.811000	1.663460	8.363510	-8.960280	279.406000	-38.543200	0.243712	0.000000	-0.990068	24.533500	-3.958550	13.099600
4.605000	-7.984850	328.744000	46.122700	0.223967	0.000000	-1.424970	-26.719300	1.600580	8.349530	-10.060400	273.368000	-38.020700	0.243579	0.000000	-0.990041	24.024900	-3.737510	12.785300
4.610000	-7.670900	326.973000	46.450900	0.224277	0.000000	-1.424530	-26.717400	1.581340	8.411670	-10.970200	268.535000	-37.405700	0.243547	0.000000	-0.990116	23.650700	-3.703790	12.569700
4.615000	-7.490020	324.181000	46.244400	0.224429	0.000000	-1.424990	-26.335900	1.459230	8.375310	-10.893800	264.024000	-36.776800	0.244145	0.000000	-0.990095	23.251000	-3.628860	12.519200
4.620000	-7.591830	320.707000	46.223700	0.225390	0.000000	-1.424600	-26.181800	1.492140	8.616020	-11.019400	262.919000	-36.865000	0.244020	0.000000	-0.989289	22.940900	-3.487140	12.423400
4.625000	-7.604380	317.742000	46.190600	0.225872	0.000000	-1.423570	-26.270000	1.441080	8.695040	-11.100500	258.035000	-37.222700	0.242366	0.000000	-0.988730	22.378900	-3.458070	11.795600
4.630000	-7.549040	316.109000	47.044200	0.225041	0.000000	-1.424660	-25.789200	1.443250	8.397260	-10.519500	255.099000	-37.903400	0.241588	0.000000	-0.989089	22.210000	-3.551040	11.505500
4.635000	-7.483320	312.849000	46.908800	0.226100	0.000000	-1.424350	-25.623700	1.455050	8.658700	-10.081300	252.179000	-38.766200	0.240835	0.000000	-0.988769	21.866000	-3.480320	11.209000
4.640000	-7.793920	311.538000	47.114100	0.225775	0.000000	-1.425200	-25.254900	1.423040	8.523890	-9.645160	250.466000	-39.475900	0.240681	0.000000	-0.987392	21.364400	-3.472360	11.117800
4.645000	-7.321280	308.581000	47.859100	0.226796	0.000000	-1.424200	-25.321000	1.394010	8.776710	-10.344400	250.154000	-39.381100	0.240422	0.000000	-0.987491	21.383400	-3.525460	11.054900
4.650000	-7.522610	306.691000	48.418500	0.227311	0.000000	-1.424910	-24.949100	1.365810	8.896730	-10.928800	248.648000	-40.083300	0.239505	0.000000	-0.986323	20.978000	-3.418370	10.775900
4.655000	-6.856000	305.087000	49.536100	0.227166	0.000000	-1.424120	-25.052600	1.325780	8.812980	-11.105600	247.615000	-40.347500	0.238850	0.000000	-0.986105	20.845600	-3.473780	10.591700
